<svg xmlns="http://www.w3.org/2000/svg" version="1.1" xmlns:xlink="http://www.w3.org/1999/xlink" xmlns:svgjs="http://svgjs.com/svgjs" width="256" height="256"><svg viewBox="0 0 256 256" xmlns="http://www.w3.org/2000/svg"><g stroke-linecap="round"><path d="M209.718 162.178l4.875-15.54-5.329 20.11-4.875 15.54z" fill="#21000b"></path><path d="M51.585 181.99l-5.328-15.56-4.875-20.131 5.329 15.56z" fill="#3a0010"></path><path d="M94.314 76.573l-19.667 8.483L88 78.637l20.61-5.256z" fill="#21000b"></path><path d="M204.387 182.287l-10.505 19.019-8.931 13.9 9.306-17.677z" fill="#560018"></path><path d="M127.986 72.619l15.128-.133 8.058 2.61-14.839-3.268zM113.276 72.416l14.709.192-7.8-.823-14.434 3.21z" fill="#21000b"></path><path d="M62.085 197.268l8.931 17.712-9.306-13.936-10.13-19.06z" fill="#a00029"></path><path d="M198.557 97.829l10.659 15.836 3.521 13.48-9.275-17.83z" fill="#b0002b"></path><path d="M127.986 72.619l8.347-.791.188 2.379-8.24-2.621z" fill="#21000b"></path><path d="M120.186 71.795l7.8.823.296-1.033-7.708 2.59z" fill="#21000b"></path><path d="M172.752 230.306l-10.51 10.078 10.763-12.62 11.947-12.56z" fill="#a00029"></path><path d="M57.807 97.56l-4.433 11.466-9.673 17.792 3.057-13.466z" fill="#b20029"></path><path d="M82.964 230.13l-11.948-15.149 12.2 12.607 10.51 12.662z" fill="#b0002b"></path><path d="M127.986 255.989l11.326-1.918 10.892-4.637-11.815 5.246z" fill="#7c0020"></path><path d="M116.663 254.032l11.326 1.962-10.524-1.35-11.818-5.292z" fill="#970026"></path><path d="M162.24 240.387l-12.039 9.05-10.892 4.637 11.017-5.887z" fill="#b00028"></path><path d="M105.65 249.349l-11.913-9.097 12.038 7.847 10.892 5.93z" fill="#b20029"></path><path d="M209.718 162.178l-1.22-20.187 4.236-14.843 1.859 19.488zM139.31 254.072l-11.326 1.918 10.524-2.53 11.818-5.274z" fill="#b40022"></path><path d="M43.704 126.818l4.694 14.86-1.688 20.181-5.329-15.56z" fill="#b4001d"></path><path d="M116.663 254.032l-10.892-5.93 11.815 5.32 10.403 2.572z" fill="#b40021"></path><path d="M162.293 76.708l7.302 5.88-18.426-7.493-8.058-2.61z" fill="#b00028"></path><path d="M204.387 182.287l-10.13 15.242 4.691-19.412 10.768-15.94z" fill="#b4001d"></path><path d="M113.276 72.416l-7.524 2.58-18.23 7.42 6.79-5.852z" fill="#b00028"></path><path d="M188.151 94.172l-6.203-8.91 16.604 12.569 4.905 11.485z" fill="#b40024"></path><path d="M150.336 248.188l9.498-9.658 13.178-10.761-10.763 12.62z" fill="#b4001d"></path><path d="M184.953 215.204l-11.947 12.56 7.922-15.683 13.331-14.553z" fill="#b4001c"></path><path d="M83.22 227.593l13.294 10.814 9.254 9.695-12.038-7.847z" fill="#b4001b"></path><path d="M57.807 97.56l16.836-12.504-5.712 8.887-15.557 15.083z" fill="#b40021"></path><path d="M62.085 197.268L51.58 181.985l-4.875-20.13 11.14 15.982z" fill="#b4001b"></path><path d="M147.056 247.027l-8.543 6.435-10.525 2.53 8.121-3.052z" fill="#b60016"></path><path d="M62.085 197.268l13.575 14.606 7.555 15.712-12.2-12.607z" fill="#b4001a"></path><path d="M117.58 253.424l-8.31-6.468 10.817 5.955 7.897 3.085z" fill="#b60015"></path><path d="M188.151 94.172L169.598 82.58l-7.301-5.88 19.651 8.561z" fill="#b40024"></path><path d="M150.336 248.188l-11.818 5.274 8.543-6.435 12.773-8.497z" fill="#b60012"></path><path d="M96.514 238.403l12.757 8.547 8.312 6.469-11.815-5.32z" fill="#b60011"></path><path d="M74.65 85.048l19.666-8.483-6.788 5.852-18.59 11.518z" fill="#b40022"></path><path d="M127.986 255.989l4.481-3.407 8.41-6.454-4.77 6.808zM123.803 252.56l4.187 3.424-7.896-3.085-4.465-6.825z" fill="#bb000b"></path><path d="M132.737 245.637l-.266 6.948-4.48 3.407.158-3.537zM123.803 252.56l.065-6.948 4.281 6.836-.159 3.536z" fill="#bf000b"></path><path d="M150.93 80.77l-14.405-6.567-.188-2.378 14.839 3.268zM120.577 74.17l-14.025 6.511-.796-5.679 14.432-3.21z" fill="#b40022"></path><path d="M203.456 109.314l9.275 17.83-4.237 14.843-8.266-19.23z" fill="#b80010"></path><path d="M166.45 225.42l14.476-13.336-7.923 15.682-13.178 10.762z" fill="#bb000d"></path><path d="M96.514 238.403L83.22 227.59l-7.556-15.712 14.573 13.394z" fill="#bb000b"></path><path d="M136.11 252.939l4.77-6.808 11.704-9.181-5.526 10.076z" fill="#c10000"></path><path d="M128.283 71.58l8.24 2.62-7.722 5.9-8.225-5.931z" fill="#b40020"></path><path d="M43.704 126.818l9.673-17.791 3.696 13.456-8.675 19.196z" fill="#bb000c"></path><path d="M120.091 252.912l-10.818-5.956-5.2-10.098 11.553 9.228z" fill="#c10000"></path><path d="M159.823 238.525l-12.772 8.497 5.526-10.077 13.871-11.528z" fill="#bf000b"></path><path d="M198.948 178.117l-4.69 19.412-13.332 14.553 3.682-18.012z" fill="#bb000b"></path><path d="M96.514 238.403l-6.277-13.133 13.834 11.583 5.2 10.097z" fill="#c10000"></path><path d="M198.948 178.117l-1.13-20.2 10.677-15.928 1.221 20.188z" fill="#bb000b"></path><path d="M72.423 193.853l3.242 18.025-13.574-14.606-4.24-19.43zM48.4 141.678l11.052 15.97-1.6 20.195-11.14-15.984z" fill="#bd000b"></path><path d="M132.737 245.637l8.843-9.752-.7 10.246-8.409 6.454zM123.803 252.56l-8.174-6.486-.342-10.249 8.58 9.787z" fill="#c61300"></path><path d="M132.737 245.637l-4.588 6.818-4.282-6.835 4.603-10.128z" fill="#c61700"></path><path d="M188.151 94.172l15.306 15.143-3.227 13.443-14.193-17.207z" fill="#bd000b"></path><path d="M150.93 80.77l.245-5.677 18.426 7.492-1.055 8.75z" fill="#b80011"></path><path d="M89.104 91.176L87.53 82.42 105.76 75l.796 5.68z" fill="#b80010"></path><path d="M71.546 105.333l-14.465 17.15-3.696-13.456 15.557-15.083z" fill="#bf000b"></path><path d="M184.615 194.069l-3.681 18.012-14.476 13.336 2.569-15.95z" fill="#c40b00"></path><path d="M141.577 235.88l12.512-12.255-1.509 13.32-11.703 9.18z" fill="#c81700"></path><path d="M115.624 246.083l-11.553-9.228-1.12-13.324 12.33 12.303z" fill="#c81b00"></path><path d="M88.092 209.306l2.151 15.958L75.67 211.87l-3.242-18.025z" fill="#c40b00"></path><path d="M169.594 82.579l18.553 11.591-2.114 11.38-17.494-14.221z" fill="#bd000b"></path><path d="M154.088 223.625l14.93-14.157-2.568 15.95-13.871 11.527z" fill="#c61400"></path><path d="M71.546 105.333l-2.605-11.389 18.59-11.518 1.575 8.755z" fill="#bf000b"></path><path d="M102.951 223.53l1.12 13.325-13.833-11.582-2.15-15.958z" fill="#c61600"></path><path d="M200.23 122.756l8.266 19.23-10.677 15.927-7.8-19.954zM183.01 174.594l14.806-16.678 1.13 20.2-14.341 15.953z" fill="#c40b00"></path><path d="M132.737 245.637l-4.267-10.145 9.166-12.85 3.944 13.243z" fill="#cc2800"></path><path d="M128.472 235.488l-4.602 10.128-8.581-9.787 4.314-13.227z" fill="#cc2a00"></path><path d="M136.53 74.198l14.404 6.566-8.045 8.997-14.082-9.665zM106.555 80.676l14.025-6.511 8.225 5.93-13.738 9.61z" fill="#bd000b"></path><path d="M72.423 193.853l-14.573-16.01 1.6-20.194 15.03 16.736z" fill="#c40c00"></path><path d="M67.673 137.723l-8.218 19.923-11.052-15.971 8.676-19.197z" fill="#c60c00"></path><path d="M150.821 207.727l3.268 15.908-12.512 12.254-3.944-13.243zM102.951 223.53l3.675-15.893 12.971 14.97-4.314 13.226z" fill="#cf3100"></path><path d="M166.571 191.45l16.443-16.86 1.595 19.475-15.59 15.399z" fill="#c81c00"></path><path d="M90.98 191.302l-2.886 18.004-15.663-15.461 2.056-19.468z" fill="#c82100"></path><path d="M176.504 119.328l9.54-13.767 14.193 17.207-10.211 15.204z" fill="#c81b00"></path><path d="M150.821 207.727l15.75-16.263 2.449 18.013-14.93 14.158z" fill="#cc2a00"></path><path d="M128.472 235.488l-8.869-12.886 9.187-15.538 8.849 15.573z" fill="#d13d00"></path><path d="M106.622 207.633l-3.674 15.894-14.865-14.217 2.886-18.004z" fill="#cc2e00"></path><path d="M150.93 80.77l17.617 10.565-8.72 11.662-16.942-13.23z" fill="#c60e00"></path><path d="M57.078 122.473l14.465-17.151 9.942 13.806-13.814 18.59z" fill="#c82000"></path><path d="M98.255 102.877l-9.153-11.698 17.45-10.495 8.513 9.03z" fill="#c61000"></path><path d="M190.027 137.966l7.8 19.954-14.806 16.678-7.8-19.953z" fill="#c82400"></path><path d="M168.542 91.337l17.493 14.221-9.54 13.767-16.674-16.327z" fill="#c82000"></path><path d="M59.454 157.643l8.217-19.922 15.03 16.736-8.217 19.923z" fill="#ca2600"></path><path d="M81.479 119.14l-9.941-13.807 17.56-14.152 9.152 11.697z" fill="#c82100"></path><path d="M142.886 89.772l-13.758 12.297-14.061-12.352 13.737-9.61z" fill="#c81600"></path><path d="M142.306 190.007l8.512 17.719-13.189 14.918-8.848-15.573zM106.622 207.633l8.889-17.686 13.27 17.117-9.187 15.538z" fill="#d34200"></path><path d="M166.571 191.45l-8.09-19.204 16.733-17.61 7.8 19.953z" fill="#d13400"></path><path d="M99.47 172.138l-8.495 19.171-16.494-16.925L82.7 154.46z" fill="#d13800"></path><path d="M158.487 172.26l8.09 19.204-15.75 16.263-8.512-17.719z" fill="#d33f00"></path><path d="M90.98 191.302l8.495-19.17 16.046 17.811-8.888 17.685z" fill="#d34200"></path><path d="M175.209 154.647l-13.233-19.394 14.517-15.928 13.521 18.644z" fill="#d13800"></path><path d="M96.23 135.118L82.694 154.46l-15.03-16.737 13.812-18.59z" fill="#d13d00"></path><path d="M142.886 89.772l16.941 13.23-14.093 14.443-16.606-15.375zM98.255 102.877l16.81-13.163 14.062 12.352-16.513 15.31z" fill="#d13500"></path><path d="M128.783 207.066l-13.27-17.117 13.542-18.579 13.253 18.631z" fill="#d54e00"></path><path d="M176.504 119.328l-14.516 15.928-16.252-17.812 14.094-14.443zM98.255 102.877l14.36 14.498-16.378 17.748-14.754-15.986z" fill="#d34200"></path><path d="M145.342 152.852l16.64-17.599 13.233 19.394-16.732 17.611z" fill="#d54d00"></path><path d="M99.47 172.138L82.7 154.461l13.536-19.341 16.68 17.663z" fill="#d54e00"></path><path d="M158.487 172.26l-16.172 17.747-13.253-18.632 16.284-18.523z" fill="#d55000"></path><path d="M112.911 152.785l16.141 18.586-13.541 18.579-16.047-17.812zM112.614 117.371l16.513-15.31 16.605 15.375-16.53 16.823z" fill="#d85100"></path><path d="M145.342 152.852l-16.141-18.586 16.53-16.823 16.252 17.812z" fill="#d85400"></path><path d="M129.2 134.255l-16.282 18.523-16.681-17.664 16.377-17.747z" fill="#d85700"></path><path d="M129.2 134.255l16.142 18.586-16.284 18.524-16.141-18.587z" fill="#d85a00"></path><g><path d="M127.198 45.831l15.29-36.791 9.441 36.146-15.597 26.643z" fill="#39cd1a"></path><path d="M118.628 71.784l-16.02-26.704 8.919-36.11L127.2 45.822z" fill="#39cc1a"></path><path d="M173.07 43.24l-20.282 27.653-.862-25.719 19.451-37.777z" fill="#30ad16"></path><path d="M82.971 7.233l19.64 37.853-.25 25.717-20.503-27.734z" fill="#2faa16"></path><path d="M118.628 71.784l8.574-25.962 9.135 25.997-8.56 13.792z" fill="#2ea415"></path><path d="M136.766 85.375l-.427-13.558 15.597-26.643.862 25.72z" fill="#2a9713"></path><path d="M118.628 71.784l.213 13.557-16.482-14.546.25-25.717z" fill="#2a9513"></path><path d="M193.814 4.331l-6.43 35.993-21.891 28.837 7.578-25.913z" fill="#1f700e"></path><path d="M68.126 40.082l-6.978-36.02 20.703 39L90 69.005z" fill="#1e6b0e"></path><path d="M144.432 84.686l8.363-13.78 20.283-27.654-7.578 25.913z" fill="#1f6f0e"></path><path d="M81.851 43.065l20.503 27.734 8.957 13.814L90 69.008z" fill="#1e6b0e"></path><path d="M136.766 85.375l-8.658.752-.328-.519 8.559-13.791z" fill="#144709"></path><path d="M118.628 71.784l9.15 13.827.328.518-9.265-.787z" fill="#144609"></path><path d="M149.615 83.62l15.884-14.46 21.891-28.838-14.88 26.544z" fill="#0e3307"></path><path d="M192.653 36.857l-20.146 30.01 14.879-26.545L206.193.305z" fill="#091f04"></path><path d="M144.432 84.686l-16.326 1.453 8.658-.752 16.031-14.482z" fill="#103807"></path><path d="M102.352 70.799l16.482 14.546 9.265.787-16.79-1.517z" fill="#0f3607"></path><path d="M106.347 83.54L83.453 66.694l-15.32-26.603 21.874 28.923z" fill="#0d2e06"></path><path d="M68.126 40.082l15.32 26.603-19.898-30.089L49.576-.01z" fill="#071903"></path><path d="M149.615 83.62l-21.51 2.513 16.326-1.452 21.067-15.522z" fill="#081b03"></path><path d="M90.003 69.004l21.31 15.605 16.79 1.518-21.76-2.598z" fill="#071903"></path></g></g></svg><style>@media (prefers-color-scheme: light) { :root { filter: none; } }
</style></svg>